<svg width="20" height="20" viewBox="0 0 20 20" fill="none" xmlns="http://www.w3.org/2000/svg">
<rect y="0.000366211" width="20" height="20" rx="10" fill="#563FE3"/>
<path d="M15.77 10.0003C15.7701 11.3806 15.2267 12.7053 14.2574 13.6879C13.288 14.6705 11.9707 15.2318 10.5906 15.2503H10.52C9.17921 15.2537 7.88861 14.7406 6.91611 13.8175C6.87435 13.778 6.84078 13.7307 6.81731 13.6782C6.79385 13.6257 6.78094 13.5691 6.77934 13.5117C6.77775 13.4542 6.78748 13.397 6.80799 13.3433C6.8285 13.2896 6.85939 13.2405 6.89889 13.1987C6.93839 13.157 6.98572 13.1234 7.0382 13.0999C7.09067 13.0765 7.14725 13.0636 7.20471 13.062C7.26217 13.0604 7.31939 13.0701 7.37308 13.0906C7.42678 13.1111 7.47591 13.142 7.51768 13.1815C8.14319 13.7714 8.92866 14.1639 9.77596 14.31C10.6233 14.4561 11.4948 14.3493 12.2818 14.0029C13.0687 13.6566 13.7362 13.086 14.2007 12.3625C14.6653 11.639 14.9064 10.7947 14.8939 9.93499C14.8814 9.07528 14.6158 8.23831 14.1304 7.52865C13.645 6.81898 12.9612 6.26807 12.1645 5.94475C11.3678 5.62143 10.4935 5.54003 9.65084 5.71071C8.80815 5.8814 8.03444 6.29661 7.42635 6.90446C7.42188 6.90929 7.41713 6.91386 7.41213 6.91813L5.95854 8.25032H7.45752C7.57355 8.25032 7.68483 8.29642 7.76688 8.37846C7.84893 8.46051 7.89502 8.57179 7.89502 8.68782C7.89502 8.80385 7.84893 8.91513 7.76688 8.99718C7.68483 9.07923 7.57355 9.12532 7.45752 9.12532H4.83252C4.71649 9.12532 4.60521 9.07923 4.52316 8.99718C4.44111 8.91513 4.39502 8.80385 4.39502 8.68782V6.06282C4.39502 5.94679 4.44111 5.83551 4.52316 5.75346C4.60521 5.67142 4.71649 5.62532 4.83252 5.62532C4.94855 5.62532 5.05983 5.67142 5.14188 5.75346C5.22393 5.83551 5.27002 5.94679 5.27002 6.06282V7.69251L6.81494 6.28157C7.54993 5.54944 8.48535 5.05147 9.50312 4.85053C10.5209 4.64958 11.5754 4.75468 12.5335 5.15254C13.4916 5.5504 14.3103 6.2232 14.8863 7.086C15.4624 7.94879 15.7699 8.96291 15.77 10.0003Z" fill="#F7F6FF"/>
</svg>
